<svg id="Слой_1" data-name="Слой 1" xmlns="http://www.w3.org/2000/svg" viewBox="0 0 736.77 792"><defs><style>.cls-1,.cls-10,.cls-11,.cls-12,.cls-3,.cls-4,.cls-5,.cls-6,.cls-7,.cls-8,.cls-9{fill:none;}.cls-1{stroke:#000;}.cls-1,.cls-10,.cls-11,.cls-12,.cls-2,.cls-3,.cls-4,.cls-5,.cls-6,.cls-7,.cls-8,.cls-9{stroke-miterlimit:10;}.cls-1,.cls-8{stroke-width:20px;}.cls-1,.cls-12,.cls-6,.cls-8{stroke-dasharray:5;}.cls-2{fill:#001c28;stroke-width:8px;}.cls-12,.cls-2,.cls-6,.cls-8,.cls-9{stroke:#10ddff;}.cls-10,.cls-3,.cls-7{stroke:#f7931e;}.cls-3{stroke-width:3px;}.cls-11,.cls-4,.cls-5{stroke:#f47c06;}.cls-5{stroke-width:12px;}.cls-6{stroke-width:6px;}.cls-12,.cls-7{stroke-width:2px;}.cls-11{stroke-width:7px;}</style></defs><title>circles</title><path class="cls-1" d="M604,511.45" transform="translate(-18.76 -19.12)"/><path class="cls-2" d="M477.11,341.26a97.89,97.89,0,0,1,33,57.12" transform="translate(-18.76 -19.12)"/><path class="cls-2" d="M448.1,505.74a97.89,97.89,0,0,1-66,0" transform="translate(-18.76 -19.12)"/><path class="cls-2" d="M320.16,398.38a97.89,97.89,0,0,1,33-57.12" transform="translate(-18.76 -19.12)"/><line class="cls-3" x1="479.85" y1="444.2" x2="734.17" y2="591.03"/><line class="cls-3" x1="53.96" y1="593.07" x2="312.82" y2="444.09"/><path class="cls-4" d="M606.12,525.39a220.57,220.57,0,0,1-376.84,8.44" transform="translate(-18.76 -19.12)"/><path class="cls-5" d="M340.49,623.2a221.71,221.71,0,0,1-116-96.18" transform="translate(-18.76 -19.12)"/><path class="cls-4" d="M535.62,787a1,1,0,0,1,0-1.73" transform="translate(-18.76 -19.12)"/><path class="cls-6" d="M752.93,613.16c-67.44,116.55-193.46,195-337.81,195s-270.37-78.41-337.81-195" transform="translate(-18.76 -19.12)"/><line class="cls-3" x1="396.37" y1="1" x2="396.37" y2="299.6"/><line class="cls-3" x1="198.93" y1="280.92" x2="54.61" y2="198.68"/><path class="cls-7" d="M553.07,794.2" transform="translate(-18.76 -19.12)"/><path class="cls-3" d="M72.72,612.19C-35.84,423,29.51,181.65,218.69,73.08A393.12,393.12,0,0,1,415.13,20.62" transform="translate(-18.76 -19.12)"/><path class="cls-8" d="M225,525.17C173.74,436.7,190,321.48,269.44,251a218.76,218.76,0,0,1,145-55.32" transform="translate(-18.76 -19.12)"/><path class="cls-9" d="M487.13,479.13c-49.27,55.43-140.06,36.73-163.43-33.65s38.22-139.66,110.85-124.71S536.39,423.7,487.13,479.13Z" transform="translate(-18.76 -19.12)"/><polygon class="cls-9" points="428.7 317.95 474.42 363.67 474.42 428.33 428.7 474.06 364.03 474.06 318.31 428.33 318.31 363.67 364.03 317.95 428.7 317.95"/><path class="cls-3" d="M415.13,184.87" transform="translate(-18.76 -19.12)"/><line class="cls-10" x1="265.3" y1="763.21" x2="322.85" y2="600.91"/><line class="cls-10" x1="472.1" y1="604.08" x2="530.02" y2="763.21"/><path class="cls-11" d="M489.71,620a218.28,218.28,0,0,1-258-87.06" transform="translate(-18.76 -19.12)"/><path class="cls-12" d="M606.16,525.25c60.82-105.5,24.6-240.34-80.91-301.16a219.48,219.48,0,0,0-111.09-29.5" transform="translate(-18.76 -19.12)"/><path class="cls-12" d="M235.27,518.64" transform="translate(-18.76 -19.12)"/></svg>